<svg xmlns="http://www.w3.org/2000/svg" viewBox="0 0 1200 720" role="img">
<style>
  .title { font: 700 28px Arial, sans-serif; fill: #0f172a; }
  .subtitle { font: 400 17px Arial, sans-serif; fill: #475569; }
  .axis { font: 12px Arial, sans-serif; fill: #475569; }
  .label { font: 700 13px Arial, sans-serif; fill: #334155; }
  .legend { font: 13px Arial, sans-serif; fill: #334155; }
  .note { font: 12px Arial, sans-serif; fill: #64748b; }
</style>
<rect width="1200" height="720" fill="#ffffff"/>
<text x="92" y="44" class="title">Bitcoin, Liquidity, and Market Structure</text>
<text x="92" y="74" class="subtitle">Bitcoin price and M2 money stock, both normalized to 100</text>
<rect x="92" y="112" width="1020" height="512" fill="#f8fafc" stroke="#cbd5e1"/>
<line x1="92" y1="624.0" x2="1112" y2="624.0" stroke="#e2e8f0" stroke-width="1"/>
<text x="82" y="628.0" text-anchor="end" class="axis">-4237.5</text>
<line x1="92" y1="521.6" x2="1112" y2="521.6" stroke="#e2e8f0" stroke-width="1"/>
<text x="82" y="525.6" text-anchor="end" class="axis">8341.3</text>
<line x1="92" y1="419.2" x2="1112" y2="419.2" stroke="#e2e8f0" stroke-width="1"/>
<text x="82" y="423.2" text-anchor="end" class="axis">20920.1</text>
<line x1="92" y1="316.8" x2="1112" y2="316.8" stroke="#e2e8f0" stroke-width="1"/>
<text x="82" y="320.8" text-anchor="end" class="axis">33498.9</text>
<line x1="92" y1="214.4" x2="1112" y2="214.4" stroke="#e2e8f0" stroke-width="1"/>
<text x="82" y="218.4" text-anchor="end" class="axis">46077.8</text>
<line x1="92" y1="112.0" x2="1112" y2="112.0" stroke="#e2e8f0" stroke-width="1"/>
<text x="82" y="116.0" text-anchor="end" class="axis">58656.6</text>
<line x1="92.0" y1="112" x2="92.0" y2="624" stroke="#e2e8f0" stroke-width="1"/>
<text x="92.0" y="648" text-anchor="middle" class="axis">2015</text>
<line x1="538.8" y1="112" x2="538.8" y2="624" stroke="#e2e8f0" stroke-width="1"/>
<text x="538.8" y="648" text-anchor="middle" class="axis">2020</text>
<line x1="985.8" y1="112" x2="985.8" y2="624" stroke="#e2e8f0" stroke-width="1"/>
<text x="985.8" y="648" text-anchor="middle" class="axis">2025</text>
<polyline points="99.3,588.7 106.2,588.6 113.8,588.6 121.1,588.6 128.7,588.6 136.0,588.5 143.6,588.4 151.2,588.6 158.5,588.6 166.1,588.3 173.5,588.1 181.1,587.9 188.6,588.1 195.7,587.9 203.3,588.0 210.7,587.8 218.2,587.5 225.6,587.0 233.2,587.2 240.8,587.4 248.1,587.2 255.7,586.9 263.0,586.7 270.6,585.9 278.2,585.9 285.0,585.1 292.6,585.4 300.0,584.3 307.5,580.9 314.9,580.4 322.5,578.9 330.1,571.8 337.4,573.3 345.0,565.5 352.3,552.6 359.9,537.8 367.5,551.9 374.3,551.1 381.9,563.7 389.3,555.1 396.9,561.6 404.2,565.7 411.8,560.7 419.4,563.4 426.7,564.9 434.3,566.0 441.6,574.7 449.2,575.7 456.8,576.8 463.6,575.4 471.2,574.2 478.6,569.9 486.2,557.6 493.5,549.3 501.1,551.9 508.7,553.8 516.0,558.6 523.6,555.4 530.9,561.4 538.5,562.8 546.1,554.7 553.2,557.6 560.8,565.5 568.1,557.3 575.7,554.3 583.0,555.5 590.6,547.1 598.2,546.0 605.5,549.3 613.1,538.3 620.5,516.0 628.1,481.3 635.6,466.2 642.5,420.5 650.1,370.2 657.4,374.7 665.0,451.0 672.3,459.1 679.9,435.0 687.5,414.1 694.8,426.2 702.4,360.9 709.8,377.5 717.4,417.2 724.9,446.3 731.8,428.5 739.4,420.0 746.7,449.2 754.3,471.0 761.6,515.6 769.2,502.7 776.8,514.9 784.2,517.1 791.7,513.2 799.1,525.5 806.7,527.9 814.2,503.3 821.1,503.2 828.7,483.3 836.0,480.4 843.6,488.1 850.9,475.9 858.5,480.6 866.1,492.9 873.5,489.0 881.0,460.3 888.4,448.9 896.0,431.9 903.5,430.8 910.6,361.3 918.2,324.1 925.6,363.3 933.2,337.9 940.5,355.9 948.1,348.7 955.7,369.8 963.0,363.0 970.6,330.6 977.9,227.0 985.5,237.8 993.1,214.5 999.9,268.9 1007.5,272.1 1014.9,229.8 1022.5,195.6 1029.8,195.6 1037.4,167.5 1045.0,182.4 1052.3,147.3 1059.9,179.4 1067.2,263.6 1074.8,262.7 1082.4,296.1 1089.2,341.0 1096.8,335.6 1104.2,304.6 1111.8,314.9 1112.0,323.9" fill="none" stroke="#f97316" stroke-width="2.4" stroke-linejoin="round" stroke-linecap="round"/>
<polyline points="92.0,588.7 99.6,584.0 106.4,584.1 114.0,582.7 121.4,581.6 128.9,579.9 136.3,578.2 143.9,576.4 151.5,573.9 158.8,571.8 166.4,568.2 173.7,565.3 181.3,560.1 188.9,556.6 196.0,554.3 203.6,551.0 210.9,548.7 218.5,546.7 225.8,544.3 233.4,541.2 241.0,538.5 248.3,535.8 255.9,532.4 263.3,531.3 270.8,528.1 278.4,524.9 285.3,522.1 292.9,519.8 300.2,517.9 307.8,517.5 315.1,514.9 322.7,512.7 330.3,510.8 337.6,508.6 345.2,506.9 352.6,505.4 360.2,504.6 367.7,502.7 374.6,500.1 382.2,499.2 389.5,496.9 397.1,495.1 404.4,493.6 412.0,491.7 419.6,490.8 426.9,490.3 434.5,489.3 441.9,485.1 449.5,482.2 457.0,480.3 463.9,478.2 471.5,476.8 478.8,472.4 486.4,468.4 493.7,465.0 501.3,461.5 508.9,458.6 516.2,453.1 523.8,448.6 531.2,446.5 538.8,443.4 546.3,440.7 553.4,419.0 561.0,377.6 568.4,342.8 575.9,332.7 583.3,326.6 590.9,323.6 598.5,315.9 605.8,309.7 613.4,300.1 620.7,295.3 628.3,284.8 635.9,274.2 642.7,264.9 650.3,252.8 657.7,241.4 665.2,240.7 672.6,234.4 680.2,226.1 687.8,220.5 695.1,213.3 702.7,206.2 710.0,199.7 717.6,193.6 725.2,190.6 732.0,188.1 739.6,188.8 747.0,190.8 754.5,193.6 761.9,193.5 769.5,194.1 777.1,198.2 784.4,201.2 792.0,203.4 799.3,208.0 806.9,208.5 814.5,210.0 821.3,221.9 828.9,229.3 836.3,226.6 843.8,227.8 851.2,228.1 858.8,228.7 866.4,229.8 873.7,230.4 881.3,229.9 888.6,228.6 896.2,226.0 903.8,222.6 910.9,220.8 918.5,221.3 925.8,218.9 933.4,217.0 940.7,215.9 948.3,212.2 955.9,208.9 963.2,206.4 970.8,201.6 978.2,200.2 985.8,197.7 993.3,195.1 1000.2,191.9 1007.8,188.6 1015.1,186.3 1022.7,182.0 1030.0,178.8 1037.6,176.1 1045.2,172.8 1052.5,169.8 1060.1,168.5 1067.5,165.4 1075.1,162.4 1082.6,154.4 1089.5,152.0 1097.1,147.3" fill="none" stroke="#334155" stroke-width="2.4" stroke-linejoin="round" stroke-linecap="round"/>
<text x="20" y="368.0" transform="rotate(-90 20 368.0)" class="label" text-anchor="middle">Bitcoin, normalized</text>
<text x="1180" y="368.0" transform="rotate(90 1180 368.0)" class="label" text-anchor="middle">M2 money stock, normalized</text>
<line x1="92" y1="666" x2="120" y2="666" stroke="#f97316" stroke-width="3"/>
<text x="128" y="670" class="legend">Bitcoin</text>
<line x1="218" y1="666" x2="246" y2="666" stroke="#334155" stroke-width="3"/>
<text x="254" y="670" class="legend">M2</text>
<text x="92" y="698" class="note">Source: FRED series CBBTCUSD and M2SL.</text>
</svg>